<svg width="28" height="28" viewBox="0 0 28 28" fill="none" xmlns="http://www.w3.org/2000/svg">
<g clip-path="url(#clip0)">
<path d="M27.0138 16.2083C27.8491 9.17678 26.6124 4.73762 24.3818 2.72978L24.3829 2.72862C20.7826 -0.700215 8.6236 -1.20772 4.31627 2.88262C2.38194 4.88345 1.7006 7.81995 1.62594 11.4553C1.55127 15.0918 1.4626 21.9039 7.81044 23.7519H7.81627L7.81044 26.5741C7.81044 26.5741 7.76727 27.7174 8.4976 27.9473C9.33294 28.2179 9.71094 27.6871 12.3091 24.5838C16.6538 24.9606 19.9904 24.0973 20.3696 23.9713C21.2469 23.6773 26.2111 23.0204 27.0138 16.2083ZM12.7373 22.5981C12.7373 22.5981 9.98744 26.0269 9.13227 26.9171C8.85227 27.2064 8.54544 27.1796 8.5501 26.6056C8.5501 26.2288 8.5711 21.9203 8.5711 21.9203C3.18927 20.3779 3.5066 14.5773 3.56494 11.5428C3.62327 8.50712 4.1786 6.02095 5.8166 4.34678C9.59544 0.803618 20.2553 1.59578 22.9713 4.14845C26.2916 7.09195 25.1098 15.4079 25.1168 15.6914C24.4343 21.3778 20.4116 21.7383 19.6719 21.9844C19.3558 22.0894 16.4216 22.8443 12.7373 22.5981Z" fill="#A8A8A8"/>
<path d="M14.2588 5.01318C13.8096 5.01318 13.8096 5.71318 14.2588 5.71902C17.7436 5.74585 20.6136 8.17485 20.6451 12.6303C20.6451 13.1005 21.3334 13.0947 21.3276 12.6245H21.3264C21.2891 7.82368 18.1554 5.04002 14.2588 5.01318Z" fill="#A8A8A8"/>
<path d="M18.8444 11.8919C18.8339 12.3562 19.5211 12.3784 19.5269 11.9082C19.5841 9.26104 17.9519 7.08054 14.8847 6.85071C14.4356 6.81804 14.3889 7.52388 14.8369 7.55654C17.4969 7.75838 18.8981 9.57371 18.8444 11.8919Z" fill="#A8A8A8"/>
<path d="M18.106 14.903C17.5296 14.5693 16.9428 14.777 16.7001 15.1048L16.1926 15.7616C15.9348 16.0953 15.453 16.051 15.453 16.051C11.9366 15.1211 10.9963 11.4415 10.9963 11.4415C10.9963 11.4415 10.9531 10.9433 11.2751 10.6761L11.9098 10.1511C12.2271 9.89913 12.4278 9.29246 12.1046 8.69629C11.2413 7.13646 10.6615 6.59863 10.3663 6.18563C10.056 5.79713 9.5893 5.70962 9.10397 5.97212H9.09347C8.0843 6.56246 6.97947 7.66729 7.33297 8.80479C7.93613 10.0041 9.04447 13.8273 12.5771 16.716C14.2373 18.0821 16.8646 19.4821 17.98 19.8053L17.9905 19.8216C19.0895 20.188 20.1581 19.04 20.7286 18.0005V17.9923C20.9818 17.4895 20.8978 17.0135 20.528 16.702C19.8723 16.0626 18.883 15.3568 18.106 14.903Z" fill="#A8A8A8"/>
<path d="M15.3636 9.45463C16.4847 9.51996 17.0284 10.1056 17.0868 11.3085C17.1078 11.7786 17.7903 11.746 17.7693 11.2758C17.6946 9.70546 16.8756 8.83046 15.4009 8.74879C14.9517 8.72196 14.9097 9.42779 15.3636 9.45463Z" fill="#A8A8A8"/>
</g>
<defs>
<clipPath id="clip0">
<rect width="28" height="28" fill="white"/>
</clipPath>
</defs>
</svg>
