<svg width="28" height="28" viewBox="0 0 28 28" fill="none" xmlns="http://www.w3.org/2000/svg">
<path fill-rule="evenodd" clip-rule="evenodd" d="M23.2869 4.6761C20.831 2.21741 17.565 0.86277 14.0856 0.861328C6.91586 0.861328 1.08074 6.69628 1.07786 13.8679C1.0769 16.1605 1.67579 18.3984 2.81413 20.371L0.96875 27.1113L7.86434 25.3025C9.76436 26.3389 11.9034 26.8851 14.0803 26.8857H14.0857C21.2547 26.8857 27.0904 21.0503 27.0931 13.8783C27.0946 10.4026 25.7428 7.13463 23.2869 4.6761ZM14.0856 24.689H14.0811C12.1412 24.6882 10.2386 24.1669 8.57843 23.182L8.18382 22.9476L4.09187 24.0211L5.18407 20.0315L4.92692 19.6224C3.84465 17.9011 3.27316 15.9115 3.27412 13.8687C3.27636 7.90784 8.12646 3.05823 14.0899 3.05823C16.9777 3.05919 19.6922 4.1852 21.7334 6.22877C23.7746 8.27234 24.898 10.9887 24.897 13.8775C24.8945 19.8389 20.0447 24.689 14.0856 24.689ZM20.0159 16.5918C19.6909 16.429 18.0929 15.643 17.7949 15.5343C17.4972 15.4259 17.2803 15.3719 17.0639 15.6971C16.8471 16.0224 16.2243 16.7546 16.0346 16.9713C15.8449 17.1883 15.6555 17.2155 15.3305 17.0527C15.0054 16.8901 13.9582 16.5468 12.7167 15.4395C11.7506 14.5777 11.0983 13.5134 10.9086 13.1881C10.7193 12.8626 10.907 12.7036 11.0512 12.5248C11.4031 12.0879 11.7554 11.6299 11.8637 11.4131C11.9722 11.1961 11.9178 11.0063 11.8364 10.8437C11.7554 10.681 11.1054 9.08127 10.8346 8.43031C10.5706 7.79681 10.3028 7.88237 10.1032 7.87244C9.91384 7.86298 9.69707 7.86106 9.48029 7.86106C9.26368 7.86106 8.91152 7.94229 8.61352 8.26785C8.31567 8.59325 7.47614 9.37944 7.47614 10.9792C7.47614 12.579 8.64075 14.1244 8.80322 14.3414C8.96568 14.5583 11.0951 17.8412 14.3554 19.2488C15.1308 19.584 15.7361 19.7838 16.2083 19.9336C16.987 20.181 17.6953 20.146 18.2554 20.0624C18.8799 19.969 20.1782 19.2761 20.4492 18.5169C20.72 17.7577 20.72 17.107 20.6386 16.9713C20.5576 16.8358 20.3408 16.7546 20.0159 16.5918Z" fill="#A8A8A8"/>
</svg>
