<svg width="29" height="28" viewBox="0 0 29 28" fill="none" xmlns="http://www.w3.org/2000/svg">
<g clip-path="url(#clip0)">
<path d="M28.9715 8.23208C28.9035 6.74433 28.6543 5.72152 28.2974 4.83523C27.9292 3.89447 27.3626 3.0522 26.6204 2.35202C25.8952 1.64095 25.0171 1.08841 24.0541 0.738425C23.1308 0.393784 22.077 0.153198 20.5361 0.0876025C18.9837 0.0164522 18.4909 0 14.5536 0C10.6163 0 10.1235 0.0164522 8.57686 0.0820473C7.03598 0.147642 5.97664 0.388443 5.05892 0.73287C4.08434 1.08841 3.21199 1.63539 2.4868 2.35202C1.75033 3.0522 1.17828 3.90002 0.815579 4.82989C0.458629 5.72152 0.20945 6.73877 0.141512 8.22652C0.067821 9.72538 0.0507812 10.2012 0.0507812 14.0027C0.0507812 17.8043 0.067821 18.2801 0.135759 19.7734C0.203697 21.2611 0.453097 22.284 0.810046 23.1702C1.17828 24.111 1.75033 24.9533 2.4868 25.6534C3.21199 26.3645 4.09009 26.9171 5.05317 27.267C5.97664 27.6117 7.03022 27.8523 8.57133 27.9179C10.1177 27.9837 10.6108 27.9999 14.5481 27.9999C18.4854 27.9999 18.9782 27.9837 20.5248 27.9179C22.0657 27.8523 23.1251 27.6117 24.0428 27.267C25.9917 26.5395 27.5326 25.0518 28.2861 23.1702C28.6428 22.2786 28.8922 21.2611 28.9602 19.7734C29.0281 18.2801 29.0452 17.8043 29.0452 14.0027C29.0452 10.2012 29.0394 9.72538 28.9715 8.23208ZM26.36 19.664C26.2975 21.0315 26.0597 21.7699 25.8614 22.2622C25.3741 23.482 24.3714 24.4501 23.108 24.9206C22.5981 25.112 21.8278 25.3417 20.4171 25.4018C18.8875 25.4676 18.4287 25.4838 14.5594 25.4838C10.69 25.4838 10.2255 25.4676 8.70145 25.4018C7.28516 25.3417 6.52036 25.112 6.01049 24.9206C5.38179 24.6962 4.80952 24.3407 4.34502 23.8758C3.86348 23.4217 3.49525 22.8747 3.26289 22.2677C3.06461 21.7754 2.82671 21.0315 2.76453 19.6696C2.69637 18.1927 2.67955 17.7496 2.67955 14.0136C2.67955 10.2777 2.69637 9.82922 2.76453 8.35793C2.82671 6.99047 3.06461 6.25205 3.26289 5.75976C3.49525 5.15253 3.86348 4.6002 4.35078 4.15151C4.82081 3.68657 5.38733 3.33103 6.01625 3.1069C6.52611 2.91546 7.29666 2.68577 8.7072 2.62551C10.2368 2.55992 10.6958 2.54347 14.5649 2.54347C18.44 2.54347 18.8988 2.55992 20.4228 2.62551C21.8391 2.68577 22.6039 2.91546 23.1138 3.1069C23.7425 3.33103 24.3147 3.68657 24.7792 4.15151C25.2608 4.60554 25.629 5.15253 25.8614 5.75976C26.0597 6.25205 26.2975 6.99581 26.36 8.35793C26.4279 9.83478 26.4449 10.2777 26.4449 14.0136C26.4449 17.7496 26.4279 18.1871 26.36 19.664Z" fill="#A8A8A8"/>
<path d="M14.5552 6.81006C10.4424 6.81006 7.10547 10.0317 7.10547 14.0029C7.10547 17.974 10.4424 21.1957 14.5552 21.1957C18.6682 21.1957 22.0049 17.974 22.0049 14.0029C22.0049 10.0317 18.6682 6.81006 14.5552 6.81006ZM14.5552 18.6687C11.887 18.6687 9.72273 16.5792 9.72273 14.0029C9.72273 11.4265 11.887 9.33707 14.5552 9.33707C17.2235 9.33707 19.3876 11.4265 19.3876 14.0029C19.3876 16.5792 17.2235 18.6687 14.5552 18.6687Z" fill="#A8A8A8"/>
<path d="M24.0371 6.52538C24.0371 7.45269 23.2584 8.20458 22.2978 8.20458C21.3373 8.20458 20.5586 7.45269 20.5586 6.52538C20.5586 5.59786 21.3373 4.84619 22.2978 4.84619C23.2584 4.84619 24.0371 5.59786 24.0371 6.52538Z" fill="#A8A8A8"/>
</g>
<defs>
<clipPath id="clip0">
<rect width="29" height="28" fill="white"/>
</clipPath>
</defs>
</svg>
