<svg width="62" height="64" viewBox="0 0 62 64" fill="none" xmlns="http://www.w3.org/2000/svg">
<path fill-rule="evenodd" clip-rule="evenodd" d="M35.5048 59.0376C49.9602 56.9098 61.0429 44.7043 61.0429 29.9658C61.0429 13.7284 47.5914 0.56543 30.998 0.56543C14.4047 0.56543 0.953125 13.7284 0.953125 29.9658C0.953125 44.7043 12.0359 56.9098 26.4913 59.0376V63.7763H35.5048V59.0376ZM30.998 38.0203C35.8372 38.0203 40.016 33.8483 40.016 28.3782C40.016 22.908 35.8372 18.736 30.998 18.736C26.1589 18.736 21.9801 22.908 21.9801 28.3782C21.9801 33.8483 26.1589 38.0203 30.998 38.0203ZM30.998 41.0203C37.6354 41.0203 43.016 35.3602 43.016 28.3782C43.016 21.3961 37.6354 15.736 30.998 15.736C24.3607 15.736 18.9801 21.3961 18.9801 28.3782C18.9801 35.3602 24.3607 41.0203 30.998 41.0203Z" fill="#E4F745"/>
</svg>
