<svg width="53" height="78" viewBox="0 0 53 78" fill="none" xmlns="http://www.w3.org/2000/svg">
<path d="M1.76562 8.59205C9.50667 12.2055 30.3591 17.2644 51.8405 8.59205M1.76562 8.59205C9.50667 2.91376 30.3591 -5.03585 51.8405 8.59205M1.76562 8.59205V13.2379M1.76562 65.8912V13.2379M1.76562 65.8912C3.29442 66.4505 5.26016 67.0501 7.5714 67.6136M1.76562 65.8912V71.5298C10.4743 75.1433 32.6814 80.2022 51.8405 71.5298V65.8912M51.8405 65.8912V13.2379M51.8405 65.8912C49.8993 66.6222 47.9375 67.2394 45.9699 67.7551M51.8405 8.59205V13.2379M1.76562 13.2379C3.26484 13.965 5.2299 14.7467 7.5714 15.4753M51.8405 13.2379C49.8825 14.1084 47.9219 14.8497 45.9699 15.4753M7.5714 15.4753V67.6136M7.5714 15.4753C9.89173 16.1974 12.5817 16.8673 15.5544 17.3802M7.5714 67.6136C9.91017 68.1837 12.6027 68.7168 15.5544 69.1335M15.5544 17.3802V69.1335M15.5544 17.3802C17.8218 17.7715 20.2538 18.0715 22.8116 18.2336M15.5544 69.1335C17.8335 69.4553 20.2671 69.7077 22.8116 69.8541M22.8116 18.2336V69.8541M22.8116 18.2336C25.1364 18.381 27.5651 18.4145 30.0688 18.2992M22.8116 69.8541C25.1484 69.9886 27.5788 70.0337 30.0688 69.9611M30.0688 18.2992V69.9611M30.0688 18.2992C32.739 18.1762 35.4946 17.8841 38.3002 17.3802M30.0688 69.9611C35.2136 69.8113 40.6133 69.1591 45.9699 67.7551M38.3002 17.3802V68.9884M38.3002 17.3802C40.8247 16.9269 43.3898 16.3022 45.9699 15.4753M45.9699 15.4753V67.7551" stroke="#E4F745" stroke-width="2" stroke-linecap="round" stroke-linejoin="round"/>
</svg>
