<svg width="187" height="58" viewBox="0 0 187 58" fill="none" xmlns="http://www.w3.org/2000/svg">
<path fill-rule="evenodd" clip-rule="evenodd" d="M18.4541 15.6638L18.2644 19.3814C8.70086 19.8166 1.07422 28.125 1.07422 38.3106C1.07422 48.7748 9.12379 57.2577 19.0534 57.2577C28.9831 57.2577 37.0326 48.7748 37.0326 38.3106C37.0326 36.9281 36.8921 35.5801 36.6253 34.2817C38.5895 32.7936 42.2611 35.7434 43.971 38.0341C44.7959 36.5112 45.1952 35.8937 45.5946 35.2763C45.7658 35.0116 45.9369 34.747 46.1416 34.4111L39.2665 30.128L35.6976 31.1327C33.2927 24.946 27.872 20.3977 21.3622 19.5183C20.7308 17.1085 24.4757 14.3907 27.0442 13.3973C25.9255 12.0992 25.492 11.5079 25.0585 10.9165L25.0585 10.9165C24.8727 10.6631 24.6869 10.4097 24.4472 10.1006L18.4541 15.6638ZM36.2128 32.6375C36.2946 32.9126 36.3706 33.1903 36.4407 33.4706C36.3838 33.2095 36.3029 32.9229 36.2128 32.6375ZM36.0326 38.3106C36.0326 48.2726 28.382 56.2577 19.0534 56.2577C9.72483 56.2577 2.07422 48.2726 2.07422 38.3106C2.07422 28.3487 9.72483 20.3635 19.0534 20.3635C28.382 20.3635 36.0326 28.3487 36.0326 38.3106ZM20.0511 38.3108C20.0511 38.9712 19.5557 39.416 19.0534 39.416C18.5512 39.416 18.0557 38.9712 18.0557 38.3108C18.0557 37.6503 18.5512 37.2056 19.0534 37.2056C19.5557 37.2056 20.0511 37.6503 20.0511 38.3108ZM21.0511 38.3108C21.0511 39.4735 20.1567 40.416 19.0534 40.416C17.9501 40.416 17.0557 39.4735 17.0557 38.3108C17.0557 37.1481 17.9501 36.2056 19.0534 36.2056C20.1567 36.2056 21.0511 37.1481 21.0511 38.3108ZM19.0535 41.5211C20.659 41.5211 22.0488 40.1338 22.0488 38.3106C22.0488 36.4875 20.659 35.1002 19.0535 35.1002C17.4479 35.1002 16.0581 36.4875 16.0581 38.3106C16.0581 40.1338 17.4479 41.5211 19.0535 41.5211ZM19.0535 42.5211C21.26 42.5211 23.0488 40.636 23.0488 38.3106C23.0488 35.9853 21.26 34.1002 19.0535 34.1002C16.8469 34.1002 15.0581 35.9853 15.0581 38.3106C15.0581 40.636 16.8469 42.5211 19.0535 42.5211ZM31.2834 38.4187C31.2834 45.6871 25.7048 51.4886 18.9322 51.4886C12.1595 51.4886 6.58096 45.6871 6.58096 38.4187C6.58096 31.1503 12.1595 25.3487 18.9322 25.3487C25.7048 25.3487 31.2834 31.1503 31.2834 38.4187ZM32.2834 38.4187C32.2834 46.1893 26.3058 52.4886 18.9322 52.4886C11.5585 52.4886 5.58096 46.1893 5.58096 38.4187C5.58096 30.6481 11.5585 24.3487 18.9322 24.3487C26.3058 24.3487 32.2834 30.6481 32.2834 38.4187Z" fill="#E4F745"/>
<path d="M18.2644 19.3814L18.2872 19.8809C18.5444 19.8692 18.7507 19.6641 18.7638 19.4069L18.2644 19.3814ZM18.4541 15.6638L18.114 15.2973C18.0185 15.3859 17.9614 15.5082 17.9548 15.6383L18.4541 15.6638ZM36.6253 34.2817L36.3234 33.8831C36.1698 33.9994 36.0968 34.1936 36.1356 34.3823L36.6253 34.2817ZM43.971 38.0341L43.5703 38.3332C43.6723 38.4699 43.837 38.5451 44.0071 38.5328C44.1773 38.5204 44.3294 38.4222 44.4106 38.2722L43.971 38.0341ZM45.5946 35.2763L45.1748 35.0047V35.0047L45.5946 35.2763ZM46.1416 34.4111L46.5686 34.6712C46.7112 34.4371 46.6387 34.1317 46.406 33.9867L46.1416 34.4111ZM39.2665 30.128L39.5309 29.7036C39.4116 29.6293 39.2664 29.6086 39.131 29.6467L39.2665 30.128ZM35.6976 31.1327L35.2316 31.3139C35.3249 31.5539 35.5852 31.6838 35.8331 31.614L35.6976 31.1327ZM21.3622 19.5183L20.8786 19.645C20.9299 19.841 21.0945 19.9867 21.2953 20.0138L21.3622 19.5183ZM27.0442 13.3973L27.2246 13.8636C27.3762 13.805 27.4898 13.6763 27.5292 13.5187C27.5687 13.361 27.5291 13.194 27.423 13.0709L27.0442 13.3973ZM25.0585 10.9165L25.4618 10.6209C25.4525 10.6083 25.4426 10.5961 25.4322 10.5843L25.0585 10.9165ZM25.0585 10.9165L24.6552 11.2121C24.6645 11.2248 24.6744 11.237 24.6848 11.2487L25.0585 10.9165ZM24.4472 10.1006L24.8423 9.79414C24.7563 9.68329 24.6277 9.61366 24.4879 9.60224C24.348 9.59083 24.2099 9.63869 24.107 9.73413L24.4472 10.1006ZM36.2128 32.6375L36.6896 32.487C36.607 32.2252 36.3288 32.079 36.0663 32.1595C35.8038 32.2399 35.6553 32.5169 35.7336 32.78L36.2128 32.6375ZM36.4407 33.4706L35.9556 33.5919C36.0219 33.8569 36.2886 34.0197 36.5546 33.9575C36.8207 33.8952 36.9875 33.631 36.9292 33.364L36.4407 33.4706ZM18.7638 19.4069L18.9535 15.6893L17.9548 15.6383L17.7651 19.356L18.7638 19.4069ZM1.57422 38.3106C1.57422 28.3702 9.0122 20.303 18.2872 19.8809L18.2417 18.882C8.38951 19.3303 0.574219 27.8799 0.574219 38.3106H1.57422ZM19.0534 56.7577C9.42431 56.7577 1.57422 48.5237 1.57422 38.3106H0.574219C0.574219 49.0259 8.82326 57.7577 19.0534 57.7577V56.7577ZM36.5326 38.3106C36.5326 48.5237 28.6826 56.7577 19.0534 56.7577V57.7577C29.2836 57.7577 37.5326 49.0259 37.5326 38.3106H36.5326ZM36.1356 34.3823C36.3956 35.6477 36.5326 36.962 36.5326 38.3106H37.5326C37.5326 36.8941 37.3887 35.5124 37.1151 34.181L36.1356 34.3823ZM36.9272 34.6802C37.2819 34.4115 37.7311 34.324 38.2826 34.4118C38.8424 34.501 39.4762 34.768 40.1337 35.168C41.4484 35.9678 42.7479 37.2313 43.5703 38.3332L44.3717 37.735C43.4843 36.5461 42.093 35.1894 40.6534 34.3137C39.9337 33.8759 39.1744 33.5413 38.4399 33.4243C37.6972 33.306 36.9509 33.4077 36.3234 33.8831L36.9272 34.6802ZM44.4106 38.2722C45.228 36.7633 45.6203 36.1572 46.0144 35.5478L45.1748 35.0047C44.7702 35.6303 44.3638 36.2591 43.5313 37.7959L44.4106 38.2722ZM46.0144 35.5478C46.1856 35.2832 46.3601 35.0135 46.5686 34.6712L45.7146 34.1509C45.5138 34.4805 45.3459 34.7401 45.1748 35.0047L46.0144 35.5478ZM46.406 33.9867L39.5309 29.7036L39.0021 30.5524L45.8772 34.8355L46.406 33.9867ZM39.131 29.6467L35.5621 30.6514L35.8331 31.614L39.402 30.6093L39.131 29.6467ZM21.2953 20.0138C27.6108 20.867 32.8873 25.2831 35.2316 31.3139L36.1637 30.9515C33.698 24.6088 28.1332 19.9285 21.4292 19.0228L21.2953 20.0138ZM26.8638 12.931C25.5259 13.4484 23.8911 14.4088 22.6613 15.5619C22.0457 16.139 21.5123 16.7824 21.1746 17.4626C20.8352 18.1463 20.6817 18.8938 20.8786 19.645L21.8459 19.3916C21.727 18.9379 21.8048 18.442 22.0703 17.9073C22.3375 17.3691 22.7824 16.8191 23.3452 16.2914C24.4721 15.2348 25.994 14.3396 27.2246 13.8636L26.8638 12.931ZM24.6553 11.2121C25.0945 11.8113 25.5362 12.4134 26.6654 13.7237L27.423 13.0709C26.3148 11.7851 25.8895 11.2045 25.4618 10.6209L24.6553 11.2121ZM24.6848 11.2487L24.6848 11.2487L25.4322 10.5843L25.4322 10.5843L24.6848 11.2487ZM24.0521 10.407C24.2872 10.7102 24.4695 10.9587 24.6552 11.2121L25.4617 10.6209C25.276 10.3675 25.0866 10.1091 24.8423 9.79414L24.0521 10.407ZM18.7943 16.0302L24.7874 10.467L24.107 9.73413L18.114 15.2973L18.7943 16.0302ZM35.7336 32.78C35.8133 33.0481 35.8874 33.3187 35.9556 33.5919L36.9258 33.3494C36.8539 33.0619 36.776 32.7771 36.6921 32.495L35.7336 32.78ZM35.736 32.788C35.8235 33.065 35.8996 33.3361 35.9522 33.5772L36.9292 33.364C36.8679 33.083 36.7824 32.7807 36.6896 32.487L35.736 32.788ZM19.0534 56.7577C28.6821 56.7577 36.5326 48.5241 36.5326 38.3106H35.5326C35.5326 48.021 28.0819 55.7577 19.0534 55.7577V56.7577ZM1.57422 38.3106C1.57422 48.5241 9.42472 56.7577 19.0534 56.7577V55.7577C10.0249 55.7577 2.57422 48.021 2.57422 38.3106H1.57422ZM19.0534 19.8635C9.42472 19.8635 1.57422 28.0971 1.57422 38.3106H2.57422C2.57422 28.6002 10.0249 20.8635 19.0534 20.8635V19.8635ZM36.5326 38.3106C36.5326 28.0971 28.6821 19.8635 19.0534 19.8635V20.8635C28.0819 20.8635 35.5326 28.6002 35.5326 38.3106H36.5326ZM19.0534 39.916C19.8493 39.916 20.5511 39.2296 20.5511 38.3108H19.5511C19.5511 38.7129 19.2621 38.916 19.0534 38.916V39.916ZM17.5557 38.3108C17.5557 39.2296 18.2576 39.916 19.0534 39.916V38.916C18.8448 38.916 18.5557 38.7129 18.5557 38.3108H17.5557ZM19.0534 36.7056C18.2576 36.7056 17.5557 37.392 17.5557 38.3108H18.5557C18.5557 37.9087 18.8448 37.7056 19.0534 37.7056V36.7056ZM20.5511 38.3108C20.5511 37.392 19.8493 36.7056 19.0534 36.7056V37.7056C19.2621 37.7056 19.5511 37.9087 19.5511 38.3108H20.5511ZM19.0534 40.916C20.4572 40.916 21.5511 39.7246 21.5511 38.3108H20.5511C20.5511 39.2224 19.8562 39.916 19.0534 39.916V40.916ZM16.5557 38.3108C16.5557 39.7246 17.6496 40.916 19.0534 40.916V39.916C18.2507 39.916 17.5557 39.2224 17.5557 38.3108H16.5557ZM19.0534 35.7056C17.6496 35.7056 16.5557 36.897 16.5557 38.3108H17.5557C17.5557 37.3992 18.2507 36.7056 19.0534 36.7056V35.7056ZM21.5511 38.3108C21.5511 36.897 20.4572 35.7056 19.0534 35.7056V36.7056C19.8562 36.7056 20.5511 37.3992 20.5511 38.3108H21.5511ZM21.5488 38.3106C21.5488 39.8802 20.3608 41.0211 19.0535 41.0211V42.0211C20.9572 42.0211 22.5488 40.3874 22.5488 38.3106H21.5488ZM19.0535 35.6002C20.3608 35.6002 21.5488 36.7411 21.5488 38.3106H22.5488C22.5488 36.2339 20.9572 34.6002 19.0535 34.6002V35.6002ZM16.5581 38.3106C16.5581 36.7411 17.7461 35.6002 19.0535 35.6002V34.6002C17.1497 34.6002 15.5581 36.2339 15.5581 38.3106H16.5581ZM19.0535 41.0211C17.7461 41.0211 16.5581 39.8802 16.5581 38.3106H15.5581C15.5581 40.3874 17.1497 42.0211 19.0535 42.0211V41.0211ZM22.5488 38.3106C22.5488 40.3849 20.9595 42.0211 19.0535 42.0211V43.0211C21.5606 43.0211 23.5488 40.8871 23.5488 38.3106H22.5488ZM19.0535 34.6002C20.9595 34.6002 22.5488 36.2364 22.5488 38.3106H23.5488C23.5488 35.7341 21.5606 33.6002 19.0535 33.6002V34.6002ZM15.5581 38.3106C15.5581 36.2364 17.1474 34.6002 19.0535 34.6002V33.6002C16.5463 33.6002 14.5581 35.7341 14.5581 38.3106H15.5581ZM19.0535 42.0211C17.1474 42.0211 15.5581 40.3849 15.5581 38.3106H14.5581C14.5581 40.8871 16.5463 43.0211 19.0535 43.0211V42.0211ZM18.9322 51.9886C26.0047 51.9886 31.7834 45.9388 31.7834 38.4187H30.7834C30.7834 45.4354 25.4048 50.9886 18.9322 50.9886V51.9886ZM6.08096 38.4187C6.08096 45.9388 11.8596 51.9886 18.9322 51.9886V50.9886C12.4595 50.9886 7.08096 45.4354 7.08096 38.4187H6.08096ZM18.9322 24.8487C11.8596 24.8487 6.08096 30.8986 6.08096 38.4187H7.08096C7.08096 31.402 12.4595 25.8487 18.9322 25.8487V24.8487ZM31.7834 38.4187C31.7834 30.8986 26.0047 24.8487 18.9322 24.8487V25.8487C25.4048 25.8487 30.7834 31.402 30.7834 38.4187H31.7834ZM18.9322 52.9886C26.6064 52.9886 32.7834 46.4404 32.7834 38.4187H31.7834C31.7834 45.9382 26.0053 51.9886 18.9322 51.9886V52.9886ZM5.08096 38.4187C5.08096 46.4404 11.258 52.9886 18.9322 52.9886V51.9886C11.859 51.9886 6.08096 45.9382 6.08096 38.4187H5.08096ZM18.9322 23.8487C11.258 23.8487 5.08096 30.397 5.08096 38.4187H6.08096C6.08096 30.8992 11.859 24.8487 18.9322 24.8487V23.8487ZM32.7834 38.4187C32.7834 30.397 26.6064 23.8487 18.9322 23.8487V24.8487C26.0053 24.8487 31.7834 30.8992 31.7834 38.4187H32.7834Z" fill="#E4F745"/>
<path fill-rule="evenodd" clip-rule="evenodd" d="M99.4254 43.6221C110.267 42.0347 118.579 32.929 118.579 21.9336C118.579 9.82 108.49 0 96.0454 0C83.6004 0 73.5117 9.82 73.5117 21.9336C73.5117 32.929 81.8238 42.0347 92.6653 43.6221V47.1572H99.4254V43.6221ZM96.0454 27.1806C99.2398 27.1806 102.059 24.4308 102.059 20.7492C102.059 17.0676 99.2398 14.3177 96.0454 14.3177C92.851 14.3177 90.0319 17.0676 90.0319 20.7492C90.0319 24.4308 92.851 27.1806 96.0454 27.1806ZM96.0454 30.1806C101.023 30.1806 105.059 25.958 105.059 20.7492C105.059 15.5403 101.023 11.3177 96.0454 11.3177C91.0674 11.3177 87.0319 15.5403 87.0319 20.7492C87.0319 25.958 91.0674 30.1806 96.0454 30.1806Z" fill="#E4F745"/>
<path fill-rule="evenodd" clip-rule="evenodd" d="M186.479 11.8816C186.634 11.0678 186.1 10.2824 185.286 10.1274C184.472 9.97233 183.687 10.5064 183.532 11.3202L180.728 26.0397C177.738 18.5723 170.688 13.3265 162.466 13.3265C151.536 13.3265 142.676 22.5978 142.676 34.0345C142.676 34.1482 142.677 34.2616 142.678 34.3748C142.606 34.5351 142.56 34.711 142.548 34.8971L141.179 55.795C141.125 56.6217 141.751 57.3357 142.578 57.3899C143.404 57.444 144.118 56.8178 144.173 55.9911L144.976 43.7321C148.299 50.282 154.885 54.7426 162.466 54.7426C173.396 54.7426 182.257 45.4713 182.257 34.0345C182.257 33.8374 182.254 33.6408 182.249 33.445C182.358 33.2817 182.438 33.0941 182.477 32.8886L186.479 11.8816ZM179.257 34.0345C179.257 43.944 171.613 51.7426 162.466 51.7426C153.32 51.7426 145.676 43.944 145.676 34.0345C145.676 24.1251 153.32 16.3265 162.466 16.3265C171.613 16.3265 179.257 24.1251 179.257 34.0345ZM174.859 34.0345C174.859 41.4025 169.184 47.1408 162.466 47.1408C155.749 47.1408 150.074 41.4025 150.074 34.0345C150.074 26.6666 155.749 20.9283 162.466 20.9283C169.184 20.9283 174.859 26.6666 174.859 34.0345ZM177.859 34.0345C177.859 42.9298 170.967 50.1408 162.466 50.1408C153.965 50.1408 147.074 42.9298 147.074 34.0345C147.074 25.1393 153.965 17.9283 162.466 17.9283C170.967 17.9283 177.859 25.1393 177.859 34.0345ZM162.466 42.539C166.755 42.539 170.461 38.861 170.461 34.0345C170.461 29.208 166.755 25.5301 162.466 25.5301C158.178 25.5301 154.472 29.208 154.472 34.0345C154.472 38.861 158.178 42.539 162.466 42.539ZM162.466 45.539C168.538 45.539 173.461 40.3883 173.461 34.0345C173.461 27.6808 168.538 22.5301 162.466 22.5301C156.394 22.5301 151.472 27.6808 151.472 34.0345C151.472 40.3883 156.394 45.539 162.466 45.539Z" fill="#E4F745"/>
</svg>
