<svg width="25" height="87" viewBox="0 0 25 87" fill="none" xmlns="http://www.w3.org/2000/svg">
<path d="M14.4793 0.414128C12.5152 -0.27655 10.9507 0.0225724 10.1023 0.404272C9.80819 0.536588 9.65517 0.84589 9.65517 1.16838V13.2028C9.65517 13.7405 9.22462 14.1809 8.70902 14.3335C8.03952 14.5317 7.25596 14.9281 6.70693 15.6444C6.47553 15.9462 6.13858 16.171 5.75821 16.171H3.75862C3.20634 16.171 2.75862 16.6187 2.75862 17.171V26.3699C2.75862 27.0292 3.26268 27.3561 3.7625 27.5181C4.28606 27.6879 4.74346 28.1211 4.74553 28.6715C4.75119 30.1768 4.75952 33.0674 4.74939 35.0339C4.74651 35.5912 4.28567 36.0332 3.72948 36.0687C2.64023 36.1381 1.25833 36.3629 0.362738 36.9132C0.118682 37.0631 0 37.3431 0 37.6295V46.6453C0 47.05 0.328067 47.378 0.732759 47.378C1.13745 47.378 1.46552 47.7061 1.46552 48.1108V62.5266C1.46552 62.5972 1.4714 62.6676 1.49301 62.7349C1.68784 63.3415 2.54477 64.3438 4.69074 64.5846C5.23958 64.6462 5.68966 65.0855 5.68966 65.6378V74.1509C5.68966 74.2013 5.69278 74.2517 5.70335 74.3009C5.85797 75.021 6.76931 76.4369 9.3225 77.2422C9.7646 77.3816 10.0862 77.7793 10.0862 78.2428V85.9259C10.0862 86.3779 10.3889 86.7792 10.8343 86.8561C12.2144 87.0942 13.5887 86.9976 14.509 86.848C14.9551 86.7755 15.2586 86.3779 15.2586 85.9259V78.4519C15.2586 77.8996 15.7119 77.4645 16.2518 77.3482C18.1926 76.9301 19.2945 75.3443 19.6823 74.3837C19.7241 74.2801 19.7414 74.1695 19.7414 74.0578V65.6378C19.7414 65.0855 20.191 64.6471 20.7391 64.5793C22.7579 64.3295 23.5753 63.3372 23.7658 62.735C23.7872 62.6676 23.7931 62.5972 23.7931 62.5266V47.9815C23.7931 47.6482 24.0633 47.378 24.3966 47.378C24.7298 47.378 25 47.1078 25 46.7746V37.1791C25 36.5869 23.5959 36.2683 22.4135 36.1271C21.8841 36.0638 21.4655 35.6271 21.4655 35.094V28.6775C21.4655 28.1252 21.9204 27.6994 22.4587 27.5755C23.3351 27.3739 23.691 26.9176 23.7768 26.618C23.7906 26.5696 23.7931 26.519 23.7931 26.4686V17.171C23.7931 16.6187 23.3454 16.171 22.7931 16.171H18.7638C18.4559 16.171 18.1693 16.0248 17.9574 15.8014C17.2934 15.1013 16.5049 14.6591 15.8813 14.409C15.4334 14.2294 15.0862 13.8157 15.0862 13.3331V1.30665C15.0862 0.910344 14.8532 0.545599 14.4793 0.414128Z" fill="#E4F745"/>
</svg>
