<svg width="51" height="73" viewBox="0 0 51 73" fill="none" xmlns="http://www.w3.org/2000/svg">
<path d="M18.173 6.7575V11.1332H12.6624L10.5859 12.2065V21.5359L7.15174 24.343V34.8282H14.5791L18.173 38.5435H14.659L13.2214 40.0296H0.363281V50.9276H18.173V55.1382H19.8501V72.8063H32.0694V55.1382H33.4271V50.9276H50.4381V40.0296H38.2189L36.7814 38.5435H33.0277L36.6216 34.8282H44.4483V24.343L40.0558 21.5359V12.2065L38.139 11.0507H32.0694V6.7575H30.4721V5.10628L29.7533 4.36323V3.20738L28.8748 2.29921H27.597V0.56543H22.4857V2.29921H21.2877L20.4092 3.20738V4.36323L19.6904 5.10628V6.7575H18.173Z" fill="#E4F745"/>
</svg>
