<svg width="65" height="61" viewBox="0 0 65 61" fill="none" xmlns="http://www.w3.org/2000/svg">
<path fill-rule="evenodd" clip-rule="evenodd" d="M64.6505 1.06738C64.6505 0.515098 64.2028 0.0673828 63.6505 0.0673828H1.55469C1.0024 0.0673828 0.554688 0.515097 0.554688 1.06738V50.3495C0.554688 50.9018 1.0024 51.3495 1.55469 51.3495H26.2613C26.8136 51.3495 27.2613 51.7972 27.2613 52.3495V59.2681C27.2613 59.8204 27.709 60.2681 28.2613 60.2681H36.9439C37.4962 60.2681 37.9439 59.8204 37.9439 59.2681V52.3495C37.9439 51.7972 38.3916 51.3495 38.9439 51.3495H63.6505C64.2028 51.3495 64.6505 50.9018 64.6505 50.3495V1.06738Z" fill="#E4F745"/>
<rect x="3.75781" y="3.41211" width="57.6862" height="44.5931" rx="1" fill="#B8CD09"/>
<path d="M29.3984 55.6943C29.3984 55.1421 29.8462 54.6943 30.3984 54.6943H34.808C35.3603 54.6943 35.808 55.1421 35.808 55.6943V60.2685H29.3984V55.6943Z" fill="#086972"/>
</svg>
