<svg width="50" height="50" viewBox="0 0 50 50" fill="none" xmlns="http://www.w3.org/2000/svg">
<path fill-rule="evenodd" clip-rule="evenodd" d="M49.3562 1.79351C49.5181 0.981067 48.9908 0.19117 48.1784 0.0292274C47.3659 -0.132715 46.576 0.39462 46.4141 1.20706L43.2947 16.8566C40.0763 8.91156 32.2859 3.3075 23.1866 3.3075C11.2095 3.3075 1.50006 13.0169 1.50006 24.994C1.50006 25.2611 1.50489 25.527 1.51446 25.7917C1.50961 25.8265 1.50594 25.8618 1.5035 25.8974L0.00357027 47.7828C-0.0530736 48.6093 0.571009 49.3253 1.3975 49.3819C2.22399 49.4385 2.93991 48.8145 2.99655 47.988L3.89307 34.9068C7.49263 41.8986 14.7812 46.6806 23.1866 46.6806C35.1637 46.6806 44.8731 36.9712 44.8731 24.994C44.8731 24.7083 44.8676 24.4238 44.8566 24.1407C44.9077 24.0323 44.9466 23.916 44.9711 23.7932L49.3562 1.79351ZM41.8731 24.994C41.8731 35.3143 33.5069 43.6806 23.1866 43.6806C12.8663 43.6806 4.50006 35.3143 4.50006 24.994C4.50006 14.6737 12.8663 6.3075 23.1866 6.3075C33.5069 6.3075 41.8731 14.6737 41.8731 24.994ZM36 25C36 32.1797 30.1797 38 23 38C15.8203 38 9.99999 32.1797 9.99999 25C9.99999 17.8203 15.8203 12 23 12C30.1797 12 36 17.8203 36 25ZM39 25C39 33.8365 31.8365 41 23 41C14.1634 41 6.99999 33.8365 6.99999 25C6.99999 16.1634 14.1634 8.99998 23 8.99998C31.8365 8.99998 39 16.1634 39 25ZM23 32C26.866 32 30 28.866 30 25C30 21.134 26.866 18 23 18C19.134 18 16 21.134 16 25C16 28.866 19.134 32 23 32ZM23 35C28.5228 35 33 30.5228 33 25C33 19.4771 28.5228 15 23 15C17.4771 15 13 19.4771 13 25C13 30.5228 17.4771 35 23 35Z" fill="#E4F745"/>
</svg>
