<svg width="61" height="64" viewBox="0 0 61 64" fill="none" xmlns="http://www.w3.org/2000/svg">
<path fill-rule="evenodd" clip-rule="evenodd" d="M60.2957 2.76488C60.45 1.95094 59.9152 1.16608 59.1012 1.01185C58.2873 0.857618 57.5024 1.39242 57.3482 2.20636L53.4581 22.736C49.6877 12.2527 40.0563 4.79887 28.77 4.79887C14.1968 4.79887 2.38287 17.2264 2.38287 32.5564C2.38287 33.685 2.4469 34.7979 2.57134 35.8912L0.886041 61.7585C0.832181 62.5852 1.45867 63.299 2.28535 63.3529C3.11202 63.4067 3.82583 62.7802 3.87969 61.9536L5.0077 44.6401C9.27864 53.9168 18.3141 60.314 28.77 60.314C43.3432 60.314 55.1571 47.8865 55.1571 32.5564C55.1571 31.8058 55.1288 31.0621 55.0732 30.3265L60.2957 2.76488ZM52.0502 30.1663L52.0126 30.3648C51.9517 30.6859 51.9981 31.0026 52.1266 31.2777C52.1469 31.701 52.1571 32.1274 52.1571 32.5564C52.1571 46.3746 41.545 57.314 28.77 57.314C17.0178 57.314 7.09601 48.0562 5.58261 35.8159L5.70473 33.9414C5.72984 33.5561 5.60713 33.1953 5.38524 32.9144C5.38366 32.7953 5.38287 32.676 5.38287 32.5564C5.38287 18.7383 15.995 7.79887 28.77 7.79887C40.7988 7.79887 50.9101 17.4977 52.0502 30.1663ZM46.2933 32.5565C46.2933 42.968 38.3065 51.1457 28.77 51.1457C19.2335 51.1457 11.2467 42.968 11.2467 32.5565C11.2467 22.145 19.2335 13.9672 28.77 13.9672C38.3065 13.9672 46.2933 22.145 46.2933 32.5565ZM49.2933 32.5565C49.2933 44.4799 40.1047 54.1457 28.77 54.1457C17.4353 54.1457 8.24669 44.4799 8.24669 32.5565C8.24669 20.6331 17.4353 10.9672 28.77 10.9672C40.1047 10.9672 49.2933 20.6331 49.2933 32.5565ZM28.77 44.9774C35.068 44.9774 40.4295 39.5613 40.4295 32.5565C40.4295 25.5517 35.068 20.1356 28.77 20.1356C22.4719 20.1356 17.1105 25.5517 17.1105 32.5565C17.1105 39.5613 22.4719 44.9774 28.77 44.9774ZM28.77 47.9774C36.8662 47.9774 43.4295 41.0732 43.4295 32.5565C43.4295 24.0398 36.8662 17.1356 28.77 17.1356C20.6737 17.1356 14.1105 24.0398 14.1105 32.5565C14.1105 41.0732 20.6737 47.9774 28.77 47.9774Z" fill="#E4F745"/>
</svg>
