<svg width="62" height="62" viewBox="0 0 62 62" fill="none" xmlns="http://www.w3.org/2000/svg">
<path fill-rule="evenodd" clip-rule="evenodd" d="M32.1582 0.501668C32.2941 0.512798 32.4196 0.578995 32.5056 0.684915C32.8353 1.09115 33.0867 1.41891 33.3359 1.74382C33.9089 2.49097 34.4703 3.22307 35.9462 4.85968C36.0573 4.98284 36.1 5.15306 36.0604 5.31409C36.0207 5.47513 35.9038 5.60602 35.7482 5.66352C34.028 6.29938 31.8932 7.51247 30.3636 8.93585C29.5987 9.64758 29.0102 10.3889 28.6887 11.1119C28.3716 11.8252 28.3225 12.4973 28.5885 13.1268C28.6102 13.178 28.6227 13.2312 28.6267 13.2843C36.7823 14.5553 43.5778 19.9727 46.8228 27.3305C46.8576 27.3113 46.8949 27.2962 46.934 27.2857L51.719 25.9983C51.8491 25.9633 51.9875 25.9824 52.103 26.0511L61.2561 31.5007C61.3721 31.5698 61.4551 31.6831 61.4861 31.8149C61.5171 31.9467 61.4934 32.0856 61.4205 32.1999C61.139 32.6414 60.9074 32.9836 60.6778 33.3228L60.6777 33.3229C60.1498 34.1029 59.6324 34.8672 58.5442 36.7872C58.4618 36.9326 58.3126 37.0275 58.1465 37.0402C57.9803 37.0529 57.8191 36.9817 57.7166 36.8504C56.5831 35.3992 54.7764 33.73 52.9588 32.7057C52.0498 32.1935 51.1681 31.8597 50.387 31.7758C49.6168 31.6931 48.9699 31.8538 48.4602 32.3015C48.4428 32.3168 48.4246 32.3307 48.4057 32.3432C48.7121 33.8831 48.8729 35.476 48.8729 37.1067C48.8729 50.4207 38.1562 61.2139 24.9365 61.2139C11.7167 61.2139 1 50.4207 1 37.1067C1 24.3218 10.8818 13.8615 23.3727 13.0502C23.3727 13.0476 23.3728 13.045 23.3729 13.0424C23.373 13.0392 23.3731 13.0359 23.3733 13.0326L23.6393 8.05161C23.6464 7.91808 23.7067 7.79298 23.8067 7.70424L31.7856 0.625971C31.8876 0.535442 32.0222 0.490539 32.1582 0.501668ZM24.6267 8.31361L24.4022 12.5185C24.9229 12.4841 25.5797 12.4531 26.2061 12.461C26.6327 12.4664 27.0601 12.4899 27.4272 12.5469C27.375 11.9215 27.5111 11.2992 27.775 10.7056C28.1711 9.81468 28.8625 8.96668 29.6823 8.20378C31.1247 6.86156 33.042 5.7116 34.7254 4.99484C33.5661 3.68736 33.0416 3.00376 32.5265 2.33241L32.5265 2.33238C32.374 2.13363 32.2224 1.93595 32.0553 1.72347L24.6267 8.31361ZM24.9365 59.2139C37.0382 59.2139 46.8729 49.3296 46.8729 37.1067C46.8729 24.8839 37.0382 14.9996 24.9365 14.9996C12.8347 14.9996 3 24.8839 3 37.1067C3 49.3296 12.8347 59.2139 24.9365 59.2139ZM24.9364 38.5714C25.8463 38.5714 26.5961 37.8266 26.5961 36.8928C26.5961 35.9591 25.8463 35.2143 24.9364 35.2143C24.0266 35.2143 23.2768 35.9591 23.2768 36.8928C23.2768 37.8266 24.0266 38.5714 24.9364 38.5714ZM24.9364 39.5714C26.4053 39.5714 27.5961 38.3722 27.5961 36.8928C27.5961 35.4135 26.4053 34.2143 24.9364 34.2143C23.4676 34.2143 22.2768 35.4135 22.2768 36.8928C22.2768 38.3722 23.4676 39.5714 24.9364 39.5714ZM39 37C39 44.732 32.732 51 25 51C17.268 51 11 44.732 11 37C11 29.268 17.268 23 25 23C32.732 23 39 29.268 39 37ZM41 37C41 45.8366 33.8366 53 25 53C16.1634 53 9 45.8366 9 37C9 28.1634 16.1634 21 25 21C33.8366 21 41 28.1634 41 37ZM47.7383 28.1051L51.7715 27.02L60.2981 32.0966C60.1482 32.324 60.0076 32.5318 59.8663 32.7406L59.8659 32.7412L59.8659 32.7413C59.3923 33.4412 58.91 34.154 58.0372 35.6639C56.84 34.2753 55.1626 32.7974 53.4505 31.8326C52.4766 31.2838 51.4615 30.8839 50.4967 30.7803C49.8547 30.7113 49.2246 30.7735 48.6495 31.0166C48.5899 30.6469 48.4796 30.2291 48.3521 29.8175C48.1654 29.2141 47.9322 28.5935 47.7383 28.1051Z" fill="#E4F745"/>
<path d="M32.5056 0.684915L32.1174 1L32.1174 1L32.5056 0.684915ZM32.1582 0.501668L32.1174 1L32.1174 1L32.1582 0.501668ZM33.3359 1.74382L32.9391 2.0481L32.9391 2.0481L33.3359 1.74382ZM35.9462 4.85968L36.3175 4.52483L36.3175 4.52483L35.9462 4.85968ZM35.7482 5.66352L35.9216 6.1325L35.9216 6.1325L35.7482 5.66352ZM30.3636 8.93585L30.0229 8.56981L30.0229 8.56981L30.3636 8.93585ZM28.6887 11.1119L29.1456 11.315L29.1456 11.315L28.6887 11.1119ZM28.5885 13.1268L28.128 13.3214L28.128 13.3214L28.5885 13.1268ZM28.6267 13.2843L28.128 13.3213C28.1452 13.5532 28.32 13.7426 28.5497 13.7784L28.6267 13.2843ZM46.8228 27.3305L46.3653 27.5322C46.4219 27.6605 46.5298 27.7591 46.6626 27.8041C46.7954 27.849 46.9409 27.8361 47.0638 27.7686L46.8228 27.3305ZM46.934 27.2857L47.0638 27.7685L47.0639 27.7685L46.934 27.2857ZM51.719 25.9983L51.8489 26.4811L51.8489 26.4811L51.719 25.9983ZM52.103 26.0511L51.8473 26.4808L51.8473 26.4808L52.103 26.0511ZM61.2561 31.5007L61.0003 31.9303L61.0003 31.9303L61.2561 31.5007ZM61.4861 31.8149L61.9728 31.7004L61.9728 31.7004L61.4861 31.8149ZM61.4205 32.1999L60.9989 31.9311L60.9989 31.9311L61.4205 32.1999ZM60.6778 33.3228L61.0848 33.6135L61.0919 33.6031L60.6778 33.3228ZM60.6777 33.3229L60.2708 33.0322L60.2637 33.0426L60.6777 33.3229ZM58.5442 36.7872L58.1092 36.5406L58.1092 36.5406L58.5442 36.7872ZM58.1465 37.0402L58.1084 36.5416L58.1084 36.5416L58.1465 37.0402ZM57.7166 36.8504L58.1107 36.5427L58.1107 36.5427L57.7166 36.8504ZM52.9588 32.7057L52.7133 33.1413L52.7133 33.1413L52.9588 32.7057ZM50.387 31.7758L50.3336 32.2729L50.3336 32.2729L50.387 31.7758ZM48.4602 32.3015L48.1302 31.9259L48.1302 31.9259L48.4602 32.3015ZM48.4057 32.3432L48.1297 31.9262C47.9604 32.0383 47.8757 32.2416 47.9153 32.4408L48.4057 32.3432ZM23.3727 13.0502L23.4051 13.5492C23.6646 13.5323 23.8678 13.3194 23.8726 13.0594L23.3727 13.0502ZM23.3729 13.0424L23.8726 13.0594L23.8726 13.0593L23.3729 13.0424ZM23.3733 13.0326L23.8726 13.0593L23.8726 13.0593L23.3733 13.0326ZM23.6393 8.05161L23.14 8.02495L23.14 8.02495L23.6393 8.05161ZM23.8067 7.70424L23.4749 7.33021L23.4749 7.33021L23.8067 7.70424ZM31.7856 0.625971L31.4538 0.251939L31.4537 0.25194L31.7856 0.625971ZM24.4022 12.5185L23.9029 12.4919C23.8953 12.6346 23.9491 12.7739 24.0509 12.8743C24.1526 12.9748 24.2925 13.0269 24.4352 13.0174L24.4022 12.5185ZM24.6267 8.31361L24.2949 7.93958C24.1949 8.02832 24.1345 8.15343 24.1274 8.28695L24.6267 8.31361ZM26.2061 12.461L26.1998 12.961L26.1998 12.961L26.2061 12.461ZM27.4272 12.5469L27.3506 13.041C27.502 13.0645 27.6559 13.0172 27.7681 12.9127C27.8802 12.8082 27.9382 12.6581 27.9255 12.5053L27.4272 12.5469ZM27.775 10.7056L28.2319 10.9088L28.2319 10.9088L27.775 10.7056ZM29.6823 8.20378L29.3417 7.83775L29.3417 7.83775L29.6823 8.20378ZM34.7254 4.99484L34.9213 5.45488C35.0692 5.39188 35.1779 5.26155 35.2132 5.10465C35.2485 4.94776 35.2062 4.78345 35.0995 4.66312L34.7254 4.99484ZM32.5265 2.33241L32.1288 2.63543L32.1298 2.63676L32.5265 2.33241ZM32.5265 2.33238L32.9242 2.02936L32.9232 2.02803L32.5265 2.33238ZM32.0553 1.72347L32.4484 1.41442C32.3632 1.30613 32.2372 1.23777 32.0999 1.22547C31.9627 1.21317 31.8265 1.25802 31.7235 1.34944L32.0553 1.72347ZM51.7715 27.02L52.0273 26.5904C51.9112 26.5212 51.7721 26.5021 51.6416 26.5372L51.7715 27.02ZM47.7383 28.1051L47.6084 27.6223C47.4706 27.6593 47.3553 27.7534 47.2913 27.8809C47.2274 28.0083 47.2209 28.1571 47.2735 28.2896L47.7383 28.1051ZM60.2981 32.0966L60.7156 32.3718C60.7908 32.2577 60.816 32.1179 60.7855 31.9848C60.7549 31.8517 60.6713 31.7368 60.5539 31.667L60.2981 32.0966ZM59.8663 32.7406L60.2786 33.0236L60.2804 33.0208L59.8663 32.7406ZM59.8659 32.7412L60.2659 33.0412C60.2701 33.0356 60.2742 33.0299 60.2782 33.0241L59.8659 32.7412ZM59.8659 32.7413L59.4659 32.4413C59.461 32.4477 59.4563 32.4543 59.4518 32.4611L59.8659 32.7413ZM58.0372 35.6639L57.6585 35.9904C57.7642 36.113 57.9228 36.1769 58.084 36.1617C58.2451 36.1466 58.389 36.0543 58.4701 35.9141L58.0372 35.6639ZM53.4505 31.8326L53.205 32.2682L53.205 32.2682L53.4505 31.8326ZM50.4967 30.7803L50.4433 31.2774L50.4433 31.2774L50.4967 30.7803ZM48.6495 31.0166L48.1559 31.0962C48.1804 31.2478 48.2731 31.3798 48.4075 31.4541C48.5418 31.5284 48.7028 31.5369 48.8443 31.4771L48.6495 31.0166ZM48.3521 29.8175L47.8745 29.9653L47.8745 29.9654L48.3521 29.8175ZM32.8938 0.369829C32.7219 0.157989 32.4709 0.025595 32.199 0.00333533L32.1174 1L32.1174 1L32.8938 0.369829ZM33.7326 1.43955C33.4834 1.11453 33.2283 0.781926 32.8938 0.369827L32.1174 1C32.4423 1.40037 32.69 1.72328 32.9391 2.0481L33.7326 1.43955ZM36.3175 4.52483C34.8525 2.90024 34.2995 2.17877 33.7326 1.43954L32.9391 2.0481C33.5182 2.80316 34.0882 3.5459 35.5749 5.19453L36.3175 4.52483ZM36.5459 5.43366C36.6252 5.11159 36.5396 4.77116 36.3175 4.52483L35.5749 5.19453L35.5749 5.19453L36.5459 5.43366ZM35.9216 6.1325C36.2327 6.0175 36.4665 5.75573 36.5459 5.43366L35.5749 5.19453L35.5749 5.19453L35.9216 6.1325ZM30.7042 9.30188C32.1787 7.92976 34.2542 6.74884 35.9216 6.1325L35.5749 5.19453C33.8018 5.84993 31.6076 7.09518 30.0229 8.56981L30.7042 9.30188ZM29.1456 11.315C29.4297 10.676 29.9668 9.98804 30.7042 9.30188L30.0229 8.56981C29.2306 9.30713 28.5906 10.1018 28.2319 10.9088L29.1456 11.315ZM29.0491 12.9321C28.8493 12.4594 28.8703 11.9344 29.1456 11.315L28.2319 10.9088C27.8729 11.7161 27.7957 12.5353 28.128 13.3214L29.0491 12.9321ZM29.1253 13.2473C29.1174 13.1407 29.0922 13.0342 29.0491 12.9321L28.128 13.3214L28.128 13.3213L29.1253 13.2473ZM47.2803 27.1287C43.9686 19.6198 37.0326 14.0883 28.7036 12.7903L28.5497 13.7784C36.532 15.0224 43.187 20.3257 46.3653 27.5322L47.2803 27.1287ZM47.0638 27.7686L47.0638 27.7685L46.8041 26.8029C46.7259 26.8239 46.6514 26.8541 46.5819 26.8924L47.0638 27.7686ZM47.0639 27.7685L51.8489 26.4811L51.5891 25.5155L46.8041 26.8029L47.0639 27.7685ZM51.8489 26.4811C51.849 26.4811 51.8489 26.4812 51.8488 26.4812C51.8486 26.4812 51.8485 26.4812 51.8484 26.4812C51.848 26.4811 51.8476 26.481 51.8473 26.4808L52.3588 25.6215C52.127 25.4835 51.8494 25.4455 51.5891 25.5155L51.8489 26.4811ZM51.8473 26.4808L61.0003 31.9303L61.5119 31.0711L52.3588 25.6215L51.8473 26.4808ZM61.0003 31.9303C60.9995 31.9298 60.9993 31.9293 60.9994 31.9294L61.9728 31.7004C61.9108 31.437 61.7447 31.2097 61.5119 31.0711L61.0003 31.9303ZM60.9994 31.9294C60.9994 31.9296 60.9994 31.9303 60.9989 31.9311L61.8421 32.4687C61.9874 32.2408 62.0347 31.9637 61.9728 31.7004L60.9994 31.9294ZM60.9989 31.9311C60.7215 32.3663 60.4933 32.7034 60.2637 33.0426L61.0919 33.6031C61.3215 33.2638 61.5566 32.9166 61.8421 32.4687L60.9989 31.9311ZM60.2709 33.0322L60.2709 33.0323L61.0846 33.6135L61.0847 33.6134L60.2709 33.0322ZM60.2637 33.0426C59.7301 33.8309 59.2054 34.6066 58.1092 36.5406L58.9792 37.0337C60.0595 35.1278 60.5694 34.3749 61.0918 33.6032L60.2637 33.0426ZM58.1092 36.5406C58.1089 36.5411 58.1087 36.5414 58.1084 36.5415C58.1082 36.5416 58.1082 36.5417 58.1082 36.5417C58.1082 36.5416 58.1082 36.5416 58.1083 36.5416C58.1084 36.5416 58.1084 36.5416 58.1084 36.5416L58.1846 37.5387C58.5173 37.5133 58.815 37.3234 58.9792 37.0337L58.1092 36.5406ZM58.1084 36.5416C58.1084 36.5416 58.1084 36.5416 58.1085 36.5416C58.1087 36.5416 58.1088 36.5416 58.1089 36.5417C58.1092 36.5417 58.1094 36.5418 58.1096 36.5419C58.11 36.542 58.1104 36.5424 58.1107 36.5427L57.3225 37.1582C57.5281 37.4215 57.8516 37.5642 58.1846 37.5387L58.1084 36.5416ZM58.1107 36.5427C56.9428 35.0474 55.0876 33.3314 53.2043 32.2701L52.7133 33.1413C54.4652 34.1286 56.2234 35.751 57.3225 37.1582L58.1107 36.5427ZM53.2043 32.2701C52.2626 31.7395 51.3138 31.3725 50.4404 31.2787L50.3336 32.2729C51.0223 32.3469 51.837 32.6475 52.7133 33.1413L53.2043 32.2701ZM50.4404 31.2787C49.5663 31.1848 48.769 31.3647 48.1302 31.9259L48.7902 32.6772C49.1707 32.3429 49.6673 32.2014 50.3336 32.2729L50.4404 31.2787ZM48.1302 31.9259L48.1297 31.9262L48.6816 32.7602C48.7192 32.7353 48.7555 32.7076 48.7902 32.6772L48.1302 31.9259ZM49.3729 37.1067C49.3729 35.4431 49.2089 33.8175 48.8961 32.2456L47.9153 32.4408C48.2154 33.9487 48.3729 35.5089 48.3729 37.1067H49.3729ZM24.9365 61.7139C38.4357 61.7139 49.3729 50.6935 49.3729 37.1067H48.3729C48.3729 50.1479 37.8767 60.7139 24.9365 60.7139V61.7139ZM0.5 37.1067C0.5 50.6935 11.4372 61.7139 24.9365 61.7139V60.7139C11.9962 60.7139 1.5 50.1479 1.5 37.1067H0.5ZM23.3403 12.5513C10.5851 13.3797 0.5 24.0596 0.5 37.1067H1.5C1.5 24.5841 11.1786 14.3432 23.4051 13.5492L23.3403 12.5513ZM22.8732 13.0255C22.873 13.0308 22.8729 13.036 22.8728 13.041L23.8726 13.0594L23.8726 13.0594L22.8732 13.0255ZM22.874 13.0059C22.8737 13.0126 22.8734 13.0192 22.8732 13.0256L23.8726 13.0593L23.8726 13.0593L22.874 13.0059ZM23.14 8.02495L22.874 13.006L23.8726 13.0593L24.1386 8.07827L23.14 8.02495ZM23.4749 7.33021C23.2749 7.50769 23.1542 7.7579 23.14 8.02495L24.1386 8.07827L24.1386 8.07827L23.4749 7.33021ZM31.4537 0.25194L23.4749 7.33021L24.1386 8.07827L32.1174 1L31.4537 0.25194ZM32.199 0.00333537C31.9271 -0.0189245 31.6578 0.070883 31.4538 0.251939L32.1174 1L32.1174 1L32.199 0.00333537ZM24.9015 12.5452L25.126 8.34027L24.1274 8.28695L23.9029 12.4919L24.9015 12.5452ZM26.2124 11.961C25.5674 11.9529 24.8961 11.9848 24.3692 12.0196L24.4352 13.0174C24.9497 12.9834 25.5919 12.9533 26.1998 12.961L26.2124 11.961ZM27.5039 12.0528C27.1036 11.9907 26.6498 11.9666 26.2124 11.961L26.1998 12.961C26.6155 12.9662 27.0166 12.9892 27.3506 13.041L27.5039 12.0528ZM27.3181 10.5025C27.0278 11.1555 26.8684 11.8621 26.9289 12.5884L27.9255 12.5053C27.8817 11.9808 27.9943 11.443 28.2319 10.9088L27.3181 10.5025ZM29.3417 7.83775C28.4944 8.62624 27.7516 9.52757 27.3181 10.5025L28.2319 10.9088C28.5906 10.1018 29.2306 9.30713 30.0229 8.56981L29.3417 7.83775ZM34.5295 4.5348C32.8035 5.26969 30.8343 6.44879 29.3417 7.83775L30.0229 8.56981C31.4151 7.27432 33.2804 6.1535 34.9213 5.45488L34.5295 4.5348ZM32.1298 2.63676C32.6491 3.31358 33.1814 4.00717 34.3513 5.32656L35.0995 4.66312C33.9507 3.36754 33.4341 2.69394 32.9232 2.02806L32.1298 2.63676ZM32.1288 2.6354L32.1288 2.63543L32.9242 2.02939L32.9242 2.02936L32.1288 2.6354ZM31.6622 2.03251C31.8272 2.24231 31.9771 2.43772 32.1298 2.63673L32.9232 2.02803C32.7709 1.82953 32.6175 1.62958 32.4484 1.41442L31.6622 2.03251ZM24.9585 8.68764L32.3871 2.0975L31.7235 1.34944L24.2949 7.93958L24.9585 8.68764ZM46.3729 37.1067C46.3729 49.0567 36.7588 58.7139 24.9365 58.7139V59.7139C37.3176 59.7139 47.3729 49.6025 47.3729 37.1067H46.3729ZM24.9365 15.4996C36.7588 15.4996 46.3729 25.1568 46.3729 37.1067H47.3729C47.3729 24.611 37.3176 14.4996 24.9365 14.4996V15.4996ZM3.5 37.1067C3.5 25.1568 13.1141 15.4996 24.9365 15.4996V14.4996C12.5553 14.4996 2.5 24.611 2.5 37.1067H3.5ZM24.9365 58.7139C13.1141 58.7139 3.5 49.0567 3.5 37.1067H2.5C2.5 49.6025 12.5553 59.7139 24.9365 59.7139V58.7139ZM26.0961 36.8928C26.0961 37.5532 25.5675 38.0714 24.9364 38.0714V39.0714C26.1252 39.0714 27.0961 38.1 27.0961 36.8928H26.0961ZM24.9364 35.7143C25.5675 35.7143 26.0961 36.2325 26.0961 36.8928H27.0961C27.0961 35.6857 26.1252 34.7143 24.9364 34.7143V35.7143ZM23.7768 36.8928C23.7768 36.2325 24.3054 35.7143 24.9364 35.7143V34.7143C23.7477 34.7143 22.7768 35.6857 22.7768 36.8928H23.7768ZM24.9364 38.0714C24.3054 38.0714 23.7768 37.5532 23.7768 36.8928H22.7768C22.7768 38.1 23.7477 39.0714 24.9364 39.0714V38.0714ZM27.0961 36.8928C27.0961 38.0994 26.1258 39.0714 24.9364 39.0714V40.0714C26.6848 40.0714 28.0961 38.645 28.0961 36.8928H27.0961ZM24.9364 34.7143C26.1258 34.7143 27.0961 35.6863 27.0961 36.8928H28.0961C28.0961 35.1407 26.6848 33.7143 24.9364 33.7143V34.7143ZM22.7768 36.8928C22.7768 35.6863 23.7471 34.7143 24.9364 34.7143V33.7143C23.1881 33.7143 21.7768 35.1407 21.7768 36.8928H22.7768ZM24.9364 39.0714C23.7471 39.0714 22.7768 38.0994 22.7768 36.8928H21.7768C21.7768 38.645 23.1881 40.0714 24.9364 40.0714V39.0714ZM25 51.5C33.0081 51.5 39.5 45.0081 39.5 37H38.5C38.5 44.4558 32.4558 50.5 25 50.5V51.5ZM10.5 37C10.5 45.0081 16.9919 51.5 25 51.5V50.5C17.5442 50.5 11.5 44.4558 11.5 37H10.5ZM25 22.5C16.9919 22.5 10.5 28.9919 10.5 37H11.5C11.5 29.5442 17.5442 23.5 25 23.5V22.5ZM39.5 37C39.5 28.9919 33.0081 22.5 25 22.5V23.5C32.4558 23.5 38.5 29.5442 38.5 37H39.5ZM25 53.5C34.1127 53.5 41.5 46.1127 41.5 37H40.5C40.5 45.5604 33.5604 52.5 25 52.5V53.5ZM8.5 37C8.5 46.1127 15.8873 53.5 25 53.5V52.5C16.4396 52.5 9.5 45.5604 9.5 37H8.5ZM25 20.5C15.8873 20.5 8.5 27.8873 8.5 37H9.5C9.5 28.4396 16.4396 21.5 25 21.5V20.5ZM41.5 37C41.5 27.8873 34.1127 20.5 25 20.5V21.5C33.5604 21.5 40.5 28.4396 40.5 37H41.5ZM51.6416 26.5372L47.6084 27.6223L47.8682 28.5879L51.9014 27.5028L51.6416 26.5372ZM60.5539 31.667L52.0273 26.5904L51.5157 27.4496L60.0424 32.5262L60.5539 31.667ZM60.2804 33.0208C60.4216 32.8122 60.5638 32.6021 60.7156 32.3718L59.8807 31.8214C59.7326 32.046 59.5937 32.2513 59.4522 32.4604L60.2804 33.0208ZM60.2782 33.0241L60.2786 33.0236L59.4541 32.4577L59.4537 32.4583L60.2782 33.0241ZM60.2659 33.0413L60.2659 33.0412L59.4659 32.4412L59.4659 32.4413L60.2659 33.0413ZM58.4701 35.9141C59.3349 34.4179 59.8102 33.7157 60.28 33.0215L59.4518 32.4611C58.9743 33.1667 58.485 33.89 57.6043 35.4137L58.4701 35.9141ZM53.205 32.2682C54.8572 33.1992 56.4912 34.6366 57.6585 35.9904L58.4159 35.3374C57.1887 33.9141 55.4679 32.3955 53.6959 31.397L53.205 32.2682ZM50.4433 31.2774C51.3158 31.3711 52.2638 31.7378 53.205 32.2682L53.6959 31.397C52.6894 30.8297 51.6073 30.3967 50.5501 30.2831L50.4433 31.2774ZM48.8443 31.4771C49.3251 31.2738 49.8666 31.2155 50.4433 31.2774L50.5501 30.2831C49.8428 30.2072 49.1242 30.2731 48.4548 30.5561L48.8443 31.4771ZM47.8745 29.9654C47.9988 30.3668 48.1016 30.7595 48.1559 31.0962L49.1432 30.937C49.0782 30.5344 48.9604 30.0915 48.8298 29.6696L47.8745 29.9654ZM47.2735 28.2896C47.4652 28.7723 47.6932 29.3795 47.8745 29.9653L48.8298 29.6696C48.6376 29.0487 48.3991 28.4146 48.203 27.9206L47.2735 28.2896Z" fill="#E4F745"/>
</svg>
