<svg width="66" height="66" viewBox="0 0 66 66" fill="none" xmlns="http://www.w3.org/2000/svg">
<path fill-rule="evenodd" clip-rule="evenodd" d="M25.6811 8.55015L25.4117 13.5958C11.8305 14.1864 1 25.4623 1 39.2857C1 53.4873 12.4312 65 26.5322 65C40.6333 65 52.0644 53.4873 52.0644 39.2857C52.0644 37.4094 51.8649 35.5799 51.486 33.8178C54.2753 31.7982 59.4894 35.8016 61.9175 38.9104C63.089 36.8436 63.6561 36.0056 64.2233 35.1676C64.4663 34.8085 64.7094 34.4493 65 33.9935L55.2368 28.1806L50.1686 29.5441C46.7533 21.1478 39.0554 14.9751 29.811 13.7815C28.9141 10.511 34.2323 6.82243 37.8799 5.47416C36.2912 3.71246 35.6756 2.90991 35.06 2.10736C34.7961 1.7634 34.5323 1.41945 34.1919 1L25.6811 8.55015ZM50.9001 31.586C51.0163 31.9595 51.1243 32.3367 51.2239 32.7173C51.143 32.3628 51.0281 31.9735 50.9001 31.586ZM51.0644 39.2857C51.0644 52.9418 40.0743 64 26.5322 64C12.9901 64 2 52.9418 2 39.2857C2 25.6297 12.9901 14.5715 26.5322 14.5715C40.0743 14.5715 51.0644 25.6297 51.0644 39.2857ZM28.3691 39.2857C28.3691 40.3181 27.54 41.1428 26.5322 41.1428C25.5244 41.1428 24.6953 40.3181 24.6953 39.2857C24.6953 38.2533 25.5244 37.4285 26.5322 37.4285C27.54 37.4285 28.3691 38.2533 28.3691 39.2857ZM29.3691 39.2857C29.3691 40.8636 28.099 42.1428 26.5322 42.1428C24.9654 42.1428 23.6953 40.8636 23.6953 39.2857C23.6953 37.7077 24.9654 36.4285 26.5322 36.4285C28.099 36.4285 29.3691 37.7077 29.3691 39.2857ZM26.5322 44C29.1068 44 31.2061 41.8961 31.2061 39.2858C31.2061 36.6754 29.1068 34.5715 26.5322 34.5715C23.9576 34.5715 21.8584 36.6754 21.8584 39.2858C21.8584 41.8961 23.9576 44 26.5322 44ZM26.5322 45C29.6658 45 32.2061 42.4417 32.2061 39.2858C32.2061 36.1298 29.6658 33.5715 26.5322 33.5715C23.3987 33.5715 20.8584 36.1298 20.8584 39.2858C20.8584 42.4417 23.3987 45 26.5322 45ZM44.32 39.4321C44.32 49.4325 36.2724 57.5273 26.36 57.5273C16.4477 57.5273 8.4 49.4325 8.4 39.4321C8.4 29.4317 16.4477 21.3369 26.36 21.3369C36.2724 21.3369 44.32 29.4317 44.32 39.4321ZM45.32 39.4321C45.32 49.9781 36.8313 58.5273 26.36 58.5273C15.8887 58.5273 7.4 49.9781 7.4 39.4321C7.4 28.8861 15.8887 20.3369 26.36 20.3369C36.8313 20.3369 45.32 28.8861 45.32 39.4321Z" fill="#E4F745"/>
<path d="M25.4117 13.5958L25.4334 14.0953C25.6906 14.0841 25.8973 13.8795 25.911 13.6224L25.4117 13.5958ZM25.6811 8.55015L25.3493 8.17612C25.2493 8.26486 25.189 8.38997 25.1818 8.52349L25.6811 8.55015ZM51.486 33.8178L51.1928 33.4128C51.0322 33.529 50.9555 33.7291 50.9972 33.9229L51.486 33.8178ZM61.9175 38.9104L61.5235 39.2182C61.6262 39.3498 61.7879 39.4214 61.9544 39.4091C62.1209 39.3968 62.2702 39.3022 62.3525 39.157L61.9175 38.9104ZM64.2233 35.1676L63.8092 34.8874L64.2233 35.1676ZM65 33.9935L65.4216 34.2622C65.4943 34.1482 65.5177 34.0095 65.4865 33.8779C65.4552 33.7464 65.372 33.633 65.2558 33.5638L65 33.9935ZM55.2368 28.1806L55.4926 27.751C55.3765 27.6819 55.2373 27.6627 55.1069 27.6978L55.2368 28.1806ZM50.1686 29.5441L49.7054 29.7325C49.8005 29.9663 50.0548 30.0925 50.2985 30.027L50.1686 29.5441ZM29.811 13.7815L29.3288 13.9137C29.3821 14.1082 29.547 14.2516 29.7469 14.2774L29.811 13.7815ZM37.8799 5.47416L38.0532 5.94315C38.2088 5.88565 38.3257 5.75476 38.3654 5.59373C38.405 5.4327 38.3622 5.26248 38.2512 5.13932L37.8799 5.47416ZM35.06 2.10736L34.6632 2.41167L35.06 2.10736ZM34.1919 1L34.5801 0.684912C34.4941 0.578993 34.3686 0.512797 34.2327 0.501667C34.0967 0.490537 33.9621 0.535441 33.8601 0.625969L34.1919 1ZM50.9001 31.586L51.3749 31.4292C51.2888 31.1686 51.0087 31.0261 50.7474 31.1099C50.4861 31.1937 50.3411 31.4726 50.4227 31.7346L50.9001 31.586ZM51.2239 32.7173L50.7402 32.8438C50.8093 33.108 51.0775 33.2679 51.3428 33.2029C51.608 33.138 51.7721 32.8723 51.7113 32.606L51.2239 32.7173ZM25.911 13.6224L26.1804 8.57681L25.1818 8.52349L24.9124 13.5691L25.911 13.6224ZM1.5 39.2857C1.5 25.728 12.1217 14.6742 25.4334 14.0953L25.39 13.0963C11.5394 13.6986 0.5 25.1965 0.5 39.2857H1.5ZM26.5322 64.5C12.7106 64.5 1.5 53.2146 1.5 39.2857H0.5C0.5 53.7601 12.1517 65.5 26.5322 65.5V64.5ZM51.5644 39.2857C51.5644 53.2146 40.3538 64.5 26.5322 64.5V65.5C40.9128 65.5 52.5644 53.7601 52.5644 39.2857H51.5644ZM50.9972 33.9229C51.3687 35.6507 51.5644 37.4449 51.5644 39.2857H52.5644C52.5644 37.3738 52.3611 35.5092 51.9748 33.7127L50.9972 33.9229ZM51.7792 34.2228C52.3416 33.8156 53.0471 33.6925 53.876 33.8186C54.711 33.9458 55.6392 34.3228 56.5859 34.8732C58.4796 35.9742 60.3434 37.7073 61.5235 39.2182L62.3116 38.6026C61.0635 37.0047 59.1062 35.1817 57.0885 34.0087C56.0795 33.4221 55.0294 32.9827 54.0264 32.83C53.0173 32.6764 52.025 32.8102 51.1928 33.4128L51.7792 34.2228ZM62.3525 39.157C63.516 37.1043 64.0757 36.2777 64.6373 35.4478L63.8092 34.8874C63.2365 35.7335 62.662 36.5829 61.4826 38.6639L62.3525 39.157ZM64.6373 35.4478C64.8804 35.0887 65.1269 34.7245 65.4216 34.2622L64.5784 33.7247C64.2918 34.1742 64.0522 34.5282 63.8092 34.8874L64.6373 35.4478ZM65.2558 33.5638L55.4926 27.751L54.981 28.6102L64.7442 34.4231L65.2558 33.5638ZM55.1069 27.6978L50.0387 29.0613L50.2985 30.027L55.3667 28.6634L55.1069 27.6978ZM29.7469 14.2774C38.8072 15.4472 46.356 21.4979 49.7054 29.7325L50.6317 29.3558C47.1506 20.7976 39.3036 14.5029 29.875 13.2856L29.7469 14.2774ZM37.7065 5.00518C35.8308 5.69852 33.5332 6.98835 31.8076 8.53461C30.9445 9.308 30.2035 10.1641 29.7367 11.0628C29.2679 11.9654 29.0619 12.9405 29.3288 13.9137L30.2931 13.6493C30.1116 12.9872 30.234 12.2749 30.6241 11.5238C31.0162 10.7689 31.6646 10.0054 32.4749 9.27935C34.0961 7.82664 36.2814 6.59808 38.0532 5.94315L37.7065 5.00518ZM34.6632 2.41167C35.2848 3.222 35.909 4.03521 37.5085 5.80901L38.2512 5.13932C36.6734 3.38972 36.0663 2.59782 35.4567 1.80304L34.6632 2.41167ZM33.8036 1.31509C34.1393 1.72866 34.3994 2.06773 34.6632 2.41167L35.4567 1.80304C35.1929 1.45908 34.9253 1.11025 34.5801 0.684912L33.8036 1.31509ZM26.0129 8.92418L34.5237 1.37403L33.8601 0.625969L25.3493 8.17612L26.0129 8.92418ZM50.4227 31.7346C50.5367 32.1008 50.6425 32.4706 50.7402 32.8438L51.7076 32.5908C51.6061 32.2027 51.496 31.8182 51.3775 31.4375L50.4227 31.7346ZM50.4253 31.7429C50.5505 32.1217 50.6603 32.4948 50.7364 32.8285L51.7113 32.606C51.6257 32.2308 51.5057 31.8253 51.3749 31.4292L50.4253 31.7429ZM26.5322 64.5C40.3537 64.5 51.5644 53.2146 51.5644 39.2857H50.5644C50.5644 52.6689 39.7949 63.5 26.5322 63.5V64.5ZM1.5 39.2857C1.5 53.2146 12.7107 64.5 26.5322 64.5V63.5C13.2696 63.5 2.5 52.6689 2.5 39.2857H1.5ZM26.5322 14.0715C12.7107 14.0715 1.5 25.3569 1.5 39.2857H2.5C2.5 25.9025 13.2696 15.0715 26.5322 15.0715V14.0715ZM51.5644 39.2857C51.5644 25.3569 40.3537 14.0715 26.5322 14.0715V15.0715C39.7949 15.0715 50.5644 25.9025 50.5644 39.2857H51.5644ZM26.5322 41.6428C27.819 41.6428 28.8691 40.5914 28.8691 39.2857H27.8691C27.8691 40.0447 27.2611 40.6428 26.5322 40.6428V41.6428ZM24.1953 39.2857C24.1953 40.5914 25.2455 41.6428 26.5322 41.6428V40.6428C25.8033 40.6428 25.1953 40.0447 25.1953 39.2857H24.1953ZM26.5322 36.9285C25.2455 36.9285 24.1953 37.98 24.1953 39.2857H25.1953C25.1953 38.5266 25.8033 37.9285 26.5322 37.9285V36.9285ZM28.8691 39.2857C28.8691 37.98 27.819 36.9285 26.5322 36.9285V37.9285C27.2611 37.9285 27.8691 38.5266 27.8691 39.2857H28.8691ZM26.5322 42.6428C28.3785 42.6428 29.8691 41.1364 29.8691 39.2857H28.8691C28.8691 40.5908 27.8195 41.6428 26.5322 41.6428V42.6428ZM23.1953 39.2857C23.1953 41.1364 24.6859 42.6428 26.5322 42.6428V41.6428C25.2449 41.6428 24.1953 40.5908 24.1953 39.2857H23.1953ZM26.5322 35.9285C24.6859 35.9285 23.1953 37.4349 23.1953 39.2857H24.1953C24.1953 37.9805 25.2449 36.9285 26.5322 36.9285V35.9285ZM29.8691 39.2857C29.8691 37.4349 28.3785 35.9285 26.5322 35.9285V36.9285C27.8195 36.9285 28.8691 37.9805 28.8691 39.2857H29.8691ZM30.7061 39.2858C30.7061 41.6231 28.8275 43.5 26.5322 43.5V44.5C29.3861 44.5 31.7061 42.1691 31.7061 39.2858H30.7061ZM26.5322 35.0715C28.8275 35.0715 30.7061 36.9484 30.7061 39.2858H31.7061C31.7061 36.4024 29.3861 34.0715 26.5322 34.0715V35.0715ZM22.3584 39.2858C22.3584 36.9484 24.2369 35.0715 26.5322 35.0715V34.0715C23.6784 34.0715 21.3584 36.4024 21.3584 39.2858H22.3584ZM26.5322 43.5C24.2369 43.5 22.3584 41.6231 22.3584 39.2858H21.3584C21.3584 42.1691 23.6784 44.5 26.5322 44.5V43.5ZM31.7061 39.2858C31.7061 42.1689 29.3863 44.5 26.5322 44.5V45.5C29.9453 45.5 32.7061 42.7145 32.7061 39.2858H31.7061ZM26.5322 34.0715C29.3863 34.0715 31.7061 36.4026 31.7061 39.2858H32.7061C32.7061 35.8571 29.9453 33.0715 26.5322 33.0715V34.0715ZM21.3584 39.2858C21.3584 36.4026 23.6781 34.0715 26.5322 34.0715V33.0715C23.1192 33.0715 20.3584 35.8571 20.3584 39.2858H21.3584ZM26.5322 44.5C23.6781 44.5 21.3584 42.1689 21.3584 39.2858H20.3584C20.3584 42.7144 23.1192 45.5 26.5322 45.5V44.5ZM26.36 58.0273C36.5518 58.0273 44.82 49.7054 44.82 39.4321H43.82C43.82 49.1597 35.9929 57.0273 26.36 57.0273V58.0273ZM7.9 39.4321C7.9 49.7054 16.1682 58.0273 26.36 58.0273V57.0273C16.7271 57.0273 8.9 49.1597 8.9 39.4321H7.9ZM26.36 20.8369C16.1682 20.8369 7.9 29.1588 7.9 39.4321H8.9C8.9 29.7045 16.7271 21.8369 26.36 21.8369V20.8369ZM44.82 39.4321C44.82 29.1588 36.5518 20.8369 26.36 20.8369V21.8369C35.9929 21.8369 43.82 29.7045 43.82 39.4321H44.82ZM26.36 59.0273C37.1108 59.0273 45.82 50.2509 45.82 39.4321H44.82C44.82 49.7053 36.5518 58.0273 26.36 58.0273V59.0273ZM6.9 39.4321C6.9 50.2509 15.6092 59.0273 26.36 59.0273V58.0273C16.1682 58.0273 7.9 49.7053 7.9 39.4321H6.9ZM26.36 19.8369C15.6092 19.8369 6.9 28.6133 6.9 39.4321H7.9C7.9 29.1589 16.1682 20.8369 26.36 20.8369V19.8369ZM45.82 39.4321C45.82 28.6133 37.1108 19.8369 26.36 19.8369V20.8369C36.5518 20.8369 44.82 29.1589 44.82 39.4321H45.82Z" fill="#E4F745"/>
</svg>
